<?xml version="1.0" encoding="UTF-8"?>
<!DOCTYPE svg PUBLIC "-//W3C//DTD SVG 1.1//EN" "http://www.w3.org/Graphics/SVG/1.1/DTD/svg11.dtd">
<svg xmlns="http://www.w3.org/2000/svg" version="1.1" width="500px" height="500px" style="shape-rendering:geometricPrecision; text-rendering:geometricPrecision; image-rendering:optimizeQuality; fill-rule:evenodd; clip-rule:evenodd" xmlns:xlink="http://www.w3.org/1999/xlink">
<g><path style="opacity:1" fill="#2d92c8" d="M 424.5,199.5 C 422.319,199.284 420.653,200.117 419.5,202C 419.5,234 419.5,266 419.5,298C 421.437,298.122 422.77,298.955 423.5,300.5C 418.101,301.477 412.768,301.477 407.5,300.5C 407.826,266.427 407.493,232.427 406.5,198.5C 412.666,197.154 418.666,197.487 424.5,199.5 Z"/></g>
<g><path style="opacity:1" fill="#36a2ce" d="M 406.5,198.5 C 407.493,232.427 407.826,266.427 407.5,300.5C 404.763,300.599 402.096,300.265 399.5,299.5C 399.293,266.143 399.293,232.81 399.5,199.5C 401.717,198.631 404.05,198.298 406.5,198.5 Z"/></g>
<g><path style="opacity:1" fill="#2382c2" d="M 424.5,199.5 C 426.292,199.366 427.958,199.699 429.5,200.5C 429.834,232.171 429.5,263.671 428.5,295C 430.152,296.066 431.819,296.566 433.5,296.5C 430.466,298.404 427.133,299.738 423.5,300.5C 422.77,298.955 421.437,298.122 419.5,298C 419.5,266 419.5,234 419.5,202C 420.653,200.117 422.319,199.284 424.5,199.5 Z"/></g>
<g><path style="opacity:0.997" fill="#3eaed3" d="M 399.5,199.5 C 399.293,232.81 399.293,266.143 399.5,299.5C 397.167,298.833 394.833,298.167 392.5,297.5C 393.048,296.312 393.381,295.145 393.5,294C 392.833,293.333 392.167,292.667 391.5,292C 392.833,290.667 392.833,289.333 391.5,288C 394.167,286.667 394.167,285.333 391.5,284C 392.833,282.667 392.833,281.333 391.5,280C 394.167,278.667 394.167,277.333 391.5,276C 392.833,274.667 392.833,273.333 391.5,272C 394.167,270.667 394.167,269.333 391.5,268C 392.833,266.667 392.833,265.333 391.5,264C 394.167,262.667 394.167,261.333 391.5,260C 392.833,258.667 392.833,257.333 391.5,256C 394.167,254.667 394.167,253.333 391.5,252C 392.833,250.667 392.833,249.333 391.5,248C 394.167,246.667 394.167,245.333 391.5,244C 392.833,242.667 392.833,241.333 391.5,240C 394.167,238.667 394.167,237.333 391.5,236C 392.833,234.667 392.833,233.333 391.5,232C 394.167,230.667 394.167,229.333 391.5,228C 392.833,226.667 392.833,225.333 391.5,224C 394.167,222.667 394.167,221.333 391.5,220C 392.833,218.667 392.833,217.333 391.5,216C 394.167,214.667 394.167,213.333 391.5,212C 392.833,210.667 392.833,209.333 391.5,208C 394.167,206.667 394.167,205.333 391.5,204C 393.544,203.502 394.878,202.335 395.5,200.5C 396.708,199.766 398.041,199.433 399.5,199.5 Z"/></g>
<g><path style="opacity:0.892" fill="#fcfcfc" d="M 153.5,203.5 C 160.481,201.826 164.481,204.493 165.5,211.5C 163.714,217.562 159.714,219.729 153.5,218C 148.189,213.045 148.189,208.212 153.5,203.5 Z"/></g>
<g><path style="opacity:1" fill="#1b75bd" d="M 429.5,200.5 C 431.75,201.13 433.75,202.13 435.5,203.5C 435.904,204.756 436.571,205.923 437.5,207C 437.352,234.391 437.018,261.725 436.5,289C 437.464,290.725 438.131,292.559 438.5,294.5C 436.95,295.441 435.284,296.107 433.5,296.5C 431.819,296.566 430.152,296.066 428.5,295C 429.5,263.671 429.834,232.171 429.5,200.5 Z"/></g>
<g><path style="opacity:1" fill="#43b7d6" d="M 395.5,200.5 C 394.878,202.335 393.544,203.502 391.5,204C 394.167,205.333 394.167,206.667 391.5,208C 392.833,209.333 392.833,210.667 391.5,212C 394.167,213.333 394.167,214.667 391.5,216C 392.833,217.333 392.833,218.667 391.5,220C 394.167,221.333 394.167,222.667 391.5,224C 392.833,225.333 392.833,226.667 391.5,228C 394.167,229.333 394.167,230.667 391.5,232C 392.833,233.333 392.833,234.667 391.5,236C 394.167,237.333 394.167,238.667 391.5,240C 392.833,241.333 392.833,242.667 391.5,244C 394.167,245.333 394.167,246.667 391.5,248C 392.833,249.333 392.833,250.667 391.5,252C 394.167,253.333 394.167,254.667 391.5,256C 392.833,257.333 392.833,258.667 391.5,260C 394.167,261.333 394.167,262.667 391.5,264C 392.833,265.333 392.833,266.667 391.5,268C 394.167,269.333 394.167,270.667 391.5,272C 392.833,273.333 392.833,274.667 391.5,276C 394.167,277.333 394.167,278.667 391.5,280C 392.833,281.333 392.833,282.667 391.5,284C 394.167,285.333 394.167,286.667 391.5,288C 392.833,289.333 392.833,290.667 391.5,292C 392.167,292.667 392.833,293.333 393.5,294C 393.381,295.145 393.048,296.312 392.5,297.5C 389.46,296.32 386.794,294.653 384.5,292.5C 385.289,292.217 385.956,291.717 386.5,291C 385.381,262.441 385.381,233.607 386.5,204.5C 389.378,202.895 392.378,201.561 395.5,200.5 Z"/></g>
<g><path style="opacity:0.988" fill="#fe7900" d="M 71.5,207.5 C 84.868,207.195 98.2014,207.695 111.5,209C 126.238,213.085 131.738,222.585 128,237.5C 126.472,242.193 123.638,245.859 119.5,248.5C 130.325,252.811 135.658,260.811 135.5,272.5C 135.391,288.443 127.391,297.277 111.5,299C 95.5924,299.824 79.7591,299.657 64,298.5C 63.3333,268.833 63.3333,239.167 64,209.5C 66.6073,208.877 69.1073,208.21 71.5,207.5 Z M 83.5,223.5 C 91.5852,223.099 99.5852,223.599 107.5,225C 110.751,229.514 111.251,234.347 109,239.5C 107.786,241.049 106.286,242.215 104.5,243C 97.5079,243.5 90.5079,243.666 83.5,243.5C 83.5,236.833 83.5,230.167 83.5,223.5 Z M 83.5,258.5 C 92.2498,258.09 100.916,258.59 109.5,260C 113.987,262.467 116.321,266.3 116.5,271.5C 116.387,276.105 114.387,279.605 110.5,282C 101.582,283.414 92.5822,283.914 83.5,283.5C 83.5,275.167 83.5,266.833 83.5,258.5 Z"/></g>
<g><path style="opacity:0.938" fill="#fcfcfc" d="M 282.5,208.5 C 287.179,208.334 291.845,208.501 296.5,209C 310.627,231.423 325.127,253.59 340,275.5C 340.5,253.169 340.667,230.836 340.5,208.5C 344.167,208.5 347.833,208.5 351.5,208.5C 351.959,238.06 352.293,267.56 352.5,297C 352.355,297.772 352.022,298.439 351.5,299C 347.833,299.667 344.167,299.667 340.5,299C 324.938,275.1 309.771,250.933 295,226.5C 293.842,238.181 293.342,250.015 293.5,262C 293.51,273.877 293.843,285.711 294.5,297.5C 294.291,298.086 293.957,298.586 293.5,299C 289.909,299.789 286.409,299.622 283,298.5C 282.5,268.502 282.333,238.502 282.5,208.5 Z"/></g>
<g><path style="opacity:0.911" fill="#fdfdfd" d="M 187.5,208.5 C 192.43,208.197 197.263,208.531 202,209.5C 215.931,231.706 230.098,253.706 244.5,275.5C 245.822,253.798 245.822,232.131 244.5,210.5C 244.709,209.914 245.043,209.414 245.5,209C 249.152,208.501 252.818,208.335 256.5,208.5C 256.667,238.502 256.5,268.502 256,298.5C 252,299.833 248,299.833 244,298.5C 229.396,274.234 214.396,250.234 199,226.5C 198.667,250.5 198.333,274.5 198,298.5C 194.545,299.791 191.045,299.791 187.5,298.5C 186.809,268.391 186.809,238.391 187.5,208.5 Z"/></g>
<g><path style="opacity:0.997" fill="#4cc5dc" d="M 386.5,204.5 C 385.381,233.607 385.381,262.441 386.5,291C 385.956,291.717 385.289,292.217 384.5,292.5C 378.237,289.239 373.237,284.572 369.5,278.5C 370.497,278.53 371.164,278.03 371.5,277C 371.436,258.925 371.102,240.758 370.5,222.5C 372.297,220.045 373.63,217.378 374.5,214.5C 377.721,210.224 381.721,206.891 386.5,204.5 Z"/></g>
<g><path style="opacity:1" fill="#1369b9" d="M 435.5,203.5 C 439.392,205.062 442.725,207.395 445.5,210.5C 445.613,234.664 445.613,258.83 445.5,283C 445.894,285.28 446.894,285.78 448.5,284.5C 448.5,285.167 448.833,285.5 449.5,285.5C 446.149,288.848 442.482,291.848 438.5,294.5C 438.131,292.559 437.464,290.725 436.5,289C 437.018,261.725 437.352,234.391 437.5,207C 436.571,205.923 435.904,204.756 435.5,203.5 Z"/></g>
<g><path style="opacity:1" fill="#0e60b5" d="M 445.5,210.5 C 447.027,210.427 448.027,211.094 448.5,212.5C 447.683,214.308 448.35,215.808 450.5,217C 449.167,237.667 449.167,258.333 450.5,279C 449.756,280.815 449.089,282.648 448.5,284.5C 446.894,285.78 445.894,285.28 445.5,283C 445.613,258.83 445.613,234.664 445.5,210.5 Z"/></g>
<g><path style="opacity:1" fill="#0957b4" d="M 448.5,212.5 C 464.095,229.263 467.928,248.597 460,270.5C 457.462,276.267 453.962,281.267 449.5,285.5C 448.833,285.5 448.5,285.167 448.5,284.5C 449.089,282.648 449.756,280.815 450.5,279C 449.167,258.333 449.167,237.667 450.5,217C 448.35,215.808 447.683,214.308 448.5,212.5 Z"/></g>
<g><path style="opacity:0.998" fill="#57d7e2" d="M 374.5,214.5 C 373.63,217.378 372.297,220.045 370.5,222.5C 371.102,240.758 371.436,258.925 371.5,277C 371.164,278.03 370.497,278.53 369.5,278.5C 358.082,260.196 357.582,241.529 368,222.5C 370.031,219.645 372.197,216.978 374.5,214.5 Z"/></g>
<g><path style="opacity:0.904" fill="#fcfcfc" d="M 152.5,230.5 C 155.833,230.5 159.167,230.5 162.5,230.5C 162.378,252.921 162.711,275.254 163.5,297.5C 163.291,298.086 162.957,298.586 162.5,299C 158.909,299.789 155.409,299.622 152,298.5C 151.178,275.761 151.345,253.094 152.5,230.5 Z"/></g>
</svg>
