<?xml version="1.0" encoding="UTF-8"?>
<!DOCTYPE svg PUBLIC "-//W3C//DTD SVG 1.1//EN" "http://www.w3.org/Graphics/SVG/1.1/DTD/svg11.dtd">
<svg xmlns="http://www.w3.org/2000/svg" version="1.1" width="932px" height="301px" style="shape-rendering:geometricPrecision; text-rendering:geometricPrecision; image-rendering:optimizeQuality; fill-rule:evenodd; clip-rule:evenodd" xmlns:xlink="http://www.w3.org/1999/xlink">
<g><path style="opacity:0.998" fill="#2e94c9" d="M 739.5,65.5 C 739.687,123.742 740.021,181.242 740.5,238C 737.076,239.412 736.742,241.245 739.5,243.5C 733.492,244.282 727.492,243.949 721.5,242.5C 721.423,241.25 720.756,240.417 719.5,240C 721.608,239.64 723.608,238.973 725.5,238C 724.167,182 724.167,126 725.5,70C 722.203,69.3136 719.203,68.1469 716.5,66.5C 724.142,65.7368 731.809,65.4035 739.5,65.5 Z"/></g>
<g><path style="opacity:1" fill="#2789c4" d="M 739.5,65.5 C 745.105,65.7793 750.438,66.7793 755.5,68.5C 754.859,69.4822 754.193,70.4822 753.5,71.5C 753.898,126.199 754.232,181.032 754.5,236C 751.767,237.228 751.1,239.061 752.5,241.5C 748.092,241.925 743.758,242.592 739.5,243.5C 736.742,241.245 737.076,239.412 740.5,238C 740.021,181.242 739.687,123.742 739.5,65.5 Z"/></g>
<g><path style="opacity:0.768" fill="#000000" d="M 283.5,71.5 C 298.377,69.5417 304.543,75.875 302,90.5C 297.47,96.1706 291.637,98.004 284.5,96C 282.04,94.5422 279.873,92.7089 278,90.5C 277.333,86.1667 277.333,81.8333 278,77.5C 280.04,75.6298 281.873,73.6298 283.5,71.5 Z"/></g>
<g><path style="opacity:1" fill="#37a3cf" d="M 716.5,66.5 C 719.203,68.1469 722.203,69.3136 725.5,70C 724.167,126 724.167,182 725.5,238C 723.608,238.973 721.608,239.64 719.5,240C 720.756,240.417 721.423,241.25 721.5,242.5C 716.625,241.915 711.958,240.915 707.5,239.5C 709.134,238.793 710.468,237.627 711.5,236C 711.821,181.641 711.487,127.141 710.5,72.5C 708.856,72.2865 707.356,72.6198 706,73.5C 705.768,72.2625 705.268,71.2625 704.5,70.5C 708.265,68.8002 712.265,67.4668 716.5,66.5 Z"/></g>
<g><path style="opacity:1" fill="#2180c1" d="M 755.5,68.5 C 757.903,68.448 760.236,68.7814 762.5,69.5C 762.119,70.9311 761.119,71.7645 759.5,72C 760.563,73.1882 761.897,73.6882 763.5,73.5C 762.729,126.938 762.729,179.771 763.5,232C 761.276,234.278 760.609,236.778 761.5,239.5C 758.5,240.167 755.5,240.833 752.5,241.5C 751.1,239.061 751.767,237.228 754.5,236C 754.232,181.032 753.898,126.199 753.5,71.5C 754.193,70.4822 754.859,69.4822 755.5,68.5 Z"/></g>
<g><path style="opacity:1" fill="#3fb0d3" d="M 704.5,70.5 C 705.268,71.2625 705.768,72.2625 706,73.5C 707.356,72.6198 708.856,72.2865 710.5,72.5C 711.487,127.141 711.821,181.641 711.5,236C 710.468,237.627 709.134,238.793 707.5,239.5C 702.523,238.754 697.856,237.087 693.5,234.5C 694.602,232.908 693.935,232.075 691.5,232C 692.563,230.812 693.897,230.312 695.5,230.5C 694.794,179.873 694.794,129.373 695.5,79C 693.187,77.4824 690.854,77.3157 688.5,78.5C 692.936,74.2819 698.269,71.6153 704.5,70.5 Z"/></g>
<g><path style="opacity:1" fill="#1a75bd" d="M 762.5,69.5 C 768.677,71.7523 774.343,74.7523 779.5,78.5C 778.906,80.8553 777.906,83.022 776.5,85C 777.202,132.07 777.202,179.57 776.5,227.5C 775.448,227.351 774.448,227.517 773.5,228C 774.244,229.815 774.911,231.648 775.5,233.5C 771.239,236.401 766.572,238.401 761.5,239.5C 760.609,236.778 761.276,234.278 763.5,232C 762.729,179.771 762.729,126.938 763.5,73.5C 761.897,73.6882 760.563,73.1882 759.5,72C 761.119,71.7645 762.119,70.9311 762.5,69.5 Z"/></g>
<g><path style="opacity:0.837" fill="#000000" d="M 344.5,79.5 C 350.842,79.3338 357.175,79.5005 363.5,80C 365.624,81.1217 367.457,82.6217 369,84.5C 392.558,121.265 415.891,158.265 439,195.5C 439.908,197.439 441.408,198.439 443.5,198.5C 443.167,159.161 443.5,119.828 444.5,80.5C 449.446,79.3857 454.446,79.219 459.5,80C 460.308,80.3076 460.975,80.8076 461.5,81.5C 462.833,133.167 462.833,184.833 461.5,236.5C 454.833,237.833 448.167,237.833 441.5,236.5C 415.092,194.451 388.759,152.451 362.5,110.5C 361.667,152.163 361.167,193.829 361,235.5C 360.5,236 360,236.5 359.5,237C 353.843,237.499 348.176,237.666 342.5,237.5C 341.845,184.617 342.511,131.95 344.5,79.5 Z"/></g>
<g><path style="opacity:0.827" fill="#000000" d="M 511.5,79.5 C 517.842,79.3338 524.175,79.5005 530.5,80C 531.416,80.3742 532.25,80.8742 533,81.5C 557.938,120.459 582.938,159.459 608,198.5C 608.5,198 609,197.5 609.5,197C 608.484,159.092 608.317,121.258 609,83.5C 609.318,81.9391 610.151,80.7724 611.5,80C 616.5,79.3333 621.5,79.3333 626.5,80C 627,80.5 627.5,81 628,81.5C 628.831,133.404 628.664,185.237 627.5,237C 621.167,237.667 614.833,237.667 608.5,237C 582.302,195.786 556.469,154.286 531,112.5C 530.311,111.643 529.478,110.977 528.5,110.5C 527.667,152.496 527.167,194.496 527,236.5C 521,237.833 515,237.833 509,236.5C 508.333,184.833 508.333,133.167 509,81.5C 509.995,80.9341 510.828,80.2674 511.5,79.5 Z"/></g>
<g><path style="opacity:0.974" fill="#fe7900" d="M 129.5,79.5 C 156.166,79.526 182.666,79.526 209,79.5C 235.399,86.6178 245.732,103.618 240,130.5C 235.804,137.87 230.304,144.203 223.5,149.5C 237.145,154.313 246.312,163.646 251,177.5C 256.914,203.484 248.081,222.317 224.5,234C 219.976,235.591 215.309,236.591 210.5,237C 182.928,237.828 155.428,237.661 128,236.5C 127.333,185.167 127.333,133.833 128,82.5C 128.513,81.4734 129.013,80.4734 129.5,79.5 Z M 161.5,105.5 C 172.172,105.333 182.839,105.5 193.5,106C 203.348,107.333 208.681,112.999 209.5,123C 209.349,130.973 205.683,136.64 198.5,140C 186.171,140.5 173.838,140.667 161.5,140.5C 161.5,128.833 161.5,117.167 161.5,105.5 Z M 161.5,166.5 C 174.504,166.333 187.504,166.5 200.5,167C 205.541,168.015 210.041,170.182 214,173.5C 218.255,183.021 218.589,192.688 215,202.5C 212.325,205.391 209.158,207.557 205.5,209C 190.884,210.413 176.217,210.913 161.5,210.5C 161.5,195.833 161.5,181.167 161.5,166.5 Z"/></g>
<g><path style="opacity:0.996" fill="#47bcd8" d="M 693.5,234.5 C 687.594,231.581 682.26,227.915 677.5,223.5C 679.824,223.338 681.491,222.172 682.5,220C 681.296,218.647 680.629,216.981 680.5,215C 680.285,189.238 680.618,163.238 681.5,137C 680.674,120.574 680.174,104.074 680,87.5C 677.486,88.0885 675.486,89.4219 674,91.5C 673.517,90.552 673.351,89.552 673.5,88.5C 676.576,85.4475 679.91,82.6142 683.5,80C 685.025,78.9914 686.692,78.4914 688.5,78.5C 690.854,77.3157 693.187,77.4824 695.5,79C 694.794,129.373 694.794,179.873 695.5,230.5C 693.897,230.312 692.563,230.812 691.5,232C 693.935,232.075 694.602,232.908 693.5,234.5 Z"/></g>
<g><path style="opacity:1" fill="#146ab9" d="M 779.5,78.5 C 785.687,81.3529 791.021,85.3529 795.5,90.5C 794.5,90.5 793.5,90.5 792.5,90.5C 792.193,130.422 792.526,170.255 793.5,210C 791.945,214.928 790.278,219.761 788.5,224.5C 784.977,228.693 780.644,231.693 775.5,233.5C 774.911,231.648 774.244,229.815 773.5,228C 774.448,227.517 775.448,227.351 776.5,227.5C 777.202,179.57 777.202,132.07 776.5,85C 777.906,83.022 778.906,80.8553 779.5,78.5 Z"/></g>
<g><path style="opacity:0.987" fill="#4ec8dc" d="M 677.5,223.5 C 671.855,219.855 667.188,215.188 663.5,209.5C 664.248,207.434 663.581,205.6 661.5,204C 663.768,203.91 665.268,205.077 666,207.5C 666.199,205.598 667.033,204.098 668.5,203C 667.643,202.311 666.977,201.478 666.5,200.5C 667.833,199.5 667.833,198.5 666.5,197.5C 667.025,196.808 667.692,196.308 668.5,196C 667.572,195.612 666.905,194.945 666.5,194C 667.615,192.765 667.615,191.598 666.5,190.5C 666.977,189.522 667.643,188.689 668.5,188C 667.833,187.667 667.167,187.333 666.5,187C 667.424,186.15 667.424,185.15 666.5,184C 666.905,183.055 667.572,182.388 668.5,182C 667.643,181.311 666.977,180.478 666.5,179.5C 667.641,178.575 667.641,177.741 666.5,177C 669.028,175.983 669.028,174.816 666.5,173.5C 667.482,169.849 667.482,166.349 666.5,163C 666.905,162.055 667.572,161.388 668.5,161C 667.643,160.311 666.977,159.478 666.5,158.5C 667.641,157.575 667.641,156.741 666.5,156C 668.308,154.507 668.308,152.673 666.5,150.5C 666.709,149.006 667.376,147.839 668.5,147C 667.692,146.692 667.025,146.192 666.5,145.5C 667.833,144.5 667.833,143.5 666.5,142.5C 666.977,141.522 667.643,140.689 668.5,140C 665.946,137.731 665.946,135.398 668.5,133C 667.692,132.692 667.025,132.192 666.5,131.5C 667.446,128.024 667.446,124.691 666.5,121.5C 668.973,119.902 668.973,118.402 666.5,117C 667.641,116.259 667.641,115.425 666.5,114.5C 668.984,113.106 668.984,111.606 666.5,110C 667.424,108.85 667.424,107.85 666.5,107C 667.167,106.667 667.833,106.333 668.5,106C 667.572,105.612 666.905,104.945 666.5,104C 667.71,99.597 667.21,99.4303 665,103.5C 663.812,102.437 663.312,101.103 663.5,99.5C 666.592,95.6761 669.926,92.0094 673.5,88.5C 673.351,89.552 673.517,90.552 674,91.5C 675.486,89.4219 677.486,88.0885 680,87.5C 680.174,104.074 680.674,120.574 681.5,137C 680.618,163.238 680.285,189.238 680.5,215C 680.629,216.981 681.296,218.647 682.5,220C 681.491,222.172 679.824,223.338 677.5,223.5 Z"/></g>
<g><path style="opacity:0.998" fill="#0b5cb3" d="M 795.5,90.5 C 798.5,92.8333 801.167,95.5 803.5,98.5C 801.656,99.2039 801.156,100.537 802,102.5C 803.991,105.658 805.824,108.824 807.5,112C 806.643,112.689 805.977,113.522 805.5,114.5C 806.028,142.596 806.361,170.762 806.5,199C 804.93,201.862 803.263,204.695 801.5,207.5C 802.881,207.404 804.215,207.404 805.5,207.5C 800.833,214.167 795.167,219.833 788.5,224.5C 790.278,219.761 791.945,214.928 793.5,210C 792.526,170.255 792.193,130.422 792.5,90.5C 793.5,90.5 794.5,90.5 795.5,90.5 Z"/></g>
<g><path style="opacity:0.958" fill="#56d5e1" d="M 663.5,99.5 C 663.312,101.103 663.812,102.437 665,103.5C 667.21,99.4303 667.71,99.597 666.5,104C 666.905,104.945 667.572,105.612 668.5,106C 667.833,106.333 667.167,106.667 666.5,107C 667.424,107.85 667.424,108.85 666.5,110C 668.984,111.606 668.984,113.106 666.5,114.5C 667.641,115.425 667.641,116.259 666.5,117C 668.973,118.402 668.973,119.902 666.5,121.5C 667.446,124.691 667.446,128.024 666.5,131.5C 667.025,132.192 667.692,132.692 668.5,133C 665.946,135.398 665.946,137.731 668.5,140C 667.643,140.689 666.977,141.522 666.5,142.5C 667.833,143.5 667.833,144.5 666.5,145.5C 667.025,146.192 667.692,146.692 668.5,147C 667.376,147.839 666.709,149.006 666.5,150.5C 668.308,152.673 668.308,154.507 666.5,156C 667.641,156.741 667.641,157.575 666.5,158.5C 666.977,159.478 667.643,160.311 668.5,161C 667.572,161.388 666.905,162.055 666.5,163C 667.482,166.349 667.482,169.849 666.5,173.5C 669.028,174.816 669.028,175.983 666.5,177C 667.641,177.741 667.641,178.575 666.5,179.5C 666.977,180.478 667.643,181.311 668.5,182C 667.572,182.388 666.905,183.055 666.5,184C 667.424,185.15 667.424,186.15 666.5,187C 667.167,187.333 667.833,187.667 668.5,188C 667.643,188.689 666.977,189.522 666.5,190.5C 667.615,191.598 667.615,192.765 666.5,194C 666.905,194.945 667.572,195.612 668.5,196C 667.692,196.308 667.025,196.808 666.5,197.5C 667.833,198.5 667.833,199.5 666.5,200.5C 666.977,201.478 667.643,202.311 668.5,203C 667.033,204.098 666.199,205.598 666,207.5C 665.268,205.077 663.768,203.91 661.5,204C 663.581,205.6 664.248,207.434 663.5,209.5C 650.972,193.586 644.639,175.42 644.5,155C 644.196,134.076 650.529,115.576 663.5,99.5 Z"/></g>
<g><path style="opacity:0.838" fill="#000000" d="M 281.5,118.5 C 287.229,118.212 292.896,118.546 298.5,119.5C 299.829,158.734 299.829,197.9 298.5,237C 292.584,237.807 286.75,237.641 281,236.5C 280.173,197.096 280.34,157.762 281.5,118.5 Z"/></g>
<g><path style="opacity:1" fill="#054eae" d="M 803.5,98.5 C 820.995,122.08 826.495,148.413 820,177.5C 816.962,188.571 812.129,198.571 805.5,207.5C 804.215,207.404 802.881,207.404 801.5,207.5C 803.263,204.695 804.93,201.862 806.5,199C 806.361,170.762 806.028,142.596 805.5,114.5C 805.977,113.522 806.643,112.689 807.5,112C 805.824,108.824 803.991,105.658 802,102.5C 801.156,100.537 801.656,99.2039 803.5,98.5 Z"/></g>
</svg>
