<?xml version="1.0" encoding="UTF-8"?>
<!DOCTYPE svg PUBLIC "-//W3C//DTD SVG 1.1//EN" "http://www.w3.org/Graphics/SVG/1.1/DTD/svg11.dtd">
<svg xmlns="http://www.w3.org/2000/svg" version="1.1" width="500px" height="169px" style="shape-rendering:geometricPrecision; text-rendering:geometricPrecision; image-rendering:optimizeQuality; fill-rule:evenodd; clip-rule:evenodd" xmlns:xlink="http://www.w3.org/1999/xlink">
<g><path style="opacity:0.037" fill="#eef5fa" d="M 407.5,27.5 C 413.233,26.2021 418.9,26.5354 424.5,28.5C 422.167,28.5 419.833,28.5 417.5,28.5C 414.375,27.5206 411.042,27.1872 407.5,27.5 Z"/></g>
<g><path style="opacity:1" fill="#36a0cd" d="M 405.5,27.5 C 406.167,27.5 406.833,27.5 407.5,27.5C 411.042,27.1872 414.375,27.5206 417.5,28.5C 416.833,28.5 416.167,28.5 415.5,28.5C 412.833,28.5 410.167,28.5 407.5,28.5C 407.5,61.8333 407.5,95.1667 407.5,128.5C 405.5,128.167 403.5,127.833 401.5,127.5C 401.5,94.8333 401.5,62.1667 401.5,29.5C 402.833,28.8333 404.167,28.1667 405.5,27.5 Z"/></g>
<g><path style="opacity:1" fill="#3195c9" d="M 415.5,28.5 C 416.791,61.479 416.791,94.479 415.5,127.5C 418.428,128.484 421.428,128.817 424.5,128.5C 422.393,129.468 420.059,129.802 417.5,129.5C 414.14,129.384 410.807,129.051 407.5,128.5C 407.5,95.1667 407.5,61.8333 407.5,28.5C 410.167,28.5 412.833,28.5 415.5,28.5 Z"/></g>
<g><path style="opacity:0.737" fill="#b2dbec" d="M 405.5,27.5 C 404.167,28.1667 402.833,28.8333 401.5,29.5C 398.673,29.5838 396.006,30.2504 393.5,31.5C 392.833,31.5 392.167,31.5 391.5,31.5C 395.712,28.9436 400.378,27.6102 405.5,27.5 Z"/></g>
<g><path style="opacity:1" fill="#2b89c5" d="M 415.5,28.5 C 416.167,28.5 416.833,28.5 417.5,28.5C 419.833,28.5 422.167,28.5 424.5,28.5C 426.099,28.2322 427.432,28.5655 428.5,29.5C 426.571,29.2308 424.905,29.7308 423.5,31C 424.833,62.3333 424.833,93.6667 423.5,125C 424.905,126.269 426.571,126.769 428.5,126.5C 428.5,126.833 428.5,127.167 428.5,127.5C 427.432,128.434 426.099,128.768 424.5,128.5C 421.428,128.817 418.428,128.484 415.5,127.5C 416.791,94.479 416.791,61.479 415.5,28.5 Z"/></g>
<g><path style="opacity:1" fill="#41acd2" d="M 401.5,29.5 C 401.5,62.1667 401.5,94.8333 401.5,127.5C 403.5,127.833 405.5,128.167 407.5,128.5C 410.807,129.051 414.14,129.384 417.5,129.5C 411.884,130.587 406.217,130.253 400.5,128.5C 398.402,127.065 396.069,125.898 393.5,125C 394.061,123.434 393.394,122.101 391.5,121C 392.833,119.667 392.833,118.333 391.5,117C 394.167,115.667 394.167,114.333 391.5,113C 392.833,111.667 392.833,110.333 391.5,109C 394.167,107.667 394.167,106.333 391.5,105C 392.833,103.667 392.833,102.333 391.5,101C 394.167,99.6667 394.167,98.3333 391.5,97C 392.833,95.6667 392.833,94.3333 391.5,93C 394.167,91.6667 394.167,90.3333 391.5,89C 392.833,87.6667 392.833,86.3333 391.5,85C 394.167,83.6667 394.167,82.3333 391.5,81C 392.833,79.6667 392.833,78.3333 391.5,77C 394.167,75.6667 394.167,74.3333 391.5,73C 392.833,71.6667 392.833,70.3333 391.5,69C 394.167,67.6667 394.167,66.3333 391.5,65C 392.833,63.6667 392.833,62.3333 391.5,61C 394.167,59.6667 394.167,58.3333 391.5,57C 392.833,55.6667 392.833,54.3333 391.5,53C 394.167,51.6667 394.167,50.3333 391.5,49C 392.833,47.6667 392.833,46.3333 391.5,45C 394.167,43.6667 394.167,42.3333 391.5,41C 392.833,39.6667 392.833,38.3333 391.5,37C 392.849,35.4624 393.516,33.6291 393.5,31.5C 396.006,30.2504 398.673,29.5838 401.5,29.5 Z"/></g>
<g><path style="opacity:1" fill="#217ec0" d="M 428.5,29.5 C 429.492,29.3284 430.158,29.6618 430.5,30.5C 431.833,31.5 433.167,32.5 434.5,33.5C 433.761,33.369 433.094,33.5357 432.5,34C 432.5,63.3333 432.5,92.6667 432.5,122C 433.244,123.039 434.244,123.539 435.5,123.5C 435.5,123.833 435.5,124.167 435.5,124.5C 433.035,124.767 430.701,125.434 428.5,126.5C 426.571,126.769 424.905,126.269 423.5,125C 424.833,93.6667 424.833,62.3333 423.5,31C 424.905,29.7308 426.571,29.2308 428.5,29.5 Z"/></g>
<g><path style="opacity:0.118" fill="#d0e3f3" d="M 430.5,30.5 C 433.754,30.7936 436.421,32.127 438.5,34.5C 437.167,34.1667 435.833,33.8333 434.5,33.5C 433.167,32.5 431.833,31.5 430.5,30.5 Z"/></g>
<g><path style="opacity:0.873" fill="#fdfdfd" d="M 153.5,32.5 C 160.481,30.8263 164.481,33.4929 165.5,40.5C 163.714,46.5623 159.714,48.729 153.5,47C 148.189,42.0452 148.189,37.2119 153.5,32.5 Z"/></g>
<g><path style="opacity:1" fill="#48b8d7" d="M 391.5,31.5 C 392.167,31.5 392.833,31.5 393.5,31.5C 393.516,33.6291 392.849,35.4624 391.5,37C 392.833,38.3333 392.833,39.6667 391.5,41C 394.167,42.3333 394.167,43.6667 391.5,45C 392.833,46.3333 392.833,47.6667 391.5,49C 394.167,50.3333 394.167,51.6667 391.5,53C 392.833,54.3333 392.833,55.6667 391.5,57C 394.167,58.3333 394.167,59.6667 391.5,61C 392.833,62.3333 392.833,63.6667 391.5,65C 394.167,66.3333 394.167,67.6667 391.5,69C 392.833,70.3333 392.833,71.6667 391.5,73C 394.167,74.3333 394.167,75.6667 391.5,77C 392.833,78.3333 392.833,79.6667 391.5,81C 394.167,82.3333 394.167,83.6667 391.5,85C 392.833,86.3333 392.833,87.6667 391.5,89C 394.167,90.3333 394.167,91.6667 391.5,93C 392.833,94.3333 392.833,95.6667 391.5,97C 394.167,98.3333 394.167,99.6667 391.5,101C 392.833,102.333 392.833,103.667 391.5,105C 394.167,106.333 394.167,107.667 391.5,109C 392.833,110.333 392.833,111.667 391.5,113C 394.167,114.333 394.167,115.667 391.5,117C 392.833,118.333 392.833,119.667 391.5,121C 393.394,122.101 394.061,123.434 393.5,125C 396.069,125.898 398.402,127.065 400.5,128.5C 395.71,127.796 391.377,126.129 387.5,123.5C 387.047,122.542 386.381,121.708 385.5,121C 385.694,92.9031 385.694,64.7365 385.5,36.5C 386.193,35.4822 386.859,34.4822 387.5,33.5C 388.514,32.3263 389.847,31.6596 391.5,31.5 Z"/></g>
<g><path style="opacity:1" fill="#1a70bb" d="M 434.5,33.5 C 435.833,33.8333 437.167,34.1667 438.5,34.5C 439.492,34.3284 440.158,34.6618 440.5,35.5C 440.782,36.7777 441.449,37.7777 442.5,38.5C 441.751,39.531 441.085,40.6976 440.5,42C 441.833,67.3333 441.833,92.6667 440.5,118C 441.094,118.464 441.761,118.631 442.5,118.5C 441.833,119.5 441.167,120.5 440.5,121.5C 438.716,121.893 437.05,122.559 435.5,123.5C 434.244,123.539 433.244,123.039 432.5,122C 432.5,92.6667 432.5,63.3333 432.5,34C 433.094,33.5357 433.761,33.369 434.5,33.5 Z"/></g>
<g><path style="opacity:0.835" fill="#a3c2e8" d="M 440.5,35.5 C 442.23,36.0256 443.564,37.0256 444.5,38.5C 443.833,38.5 443.167,38.5 442.5,38.5C 441.449,37.7777 440.782,36.7777 440.5,35.5 Z"/></g>
<g><path style="opacity:0.58" fill="#fdc99d" d="M 111.5,38.5 C 95.8333,38.5 80.1667,38.5 64.5,38.5C 71.772,36.9826 79.272,36.316 87,36.5C 95.384,36.3598 103.551,37.0264 111.5,38.5 Z"/></g>
<g><path style="opacity:0.901" fill="#fdfdfd" d="M 187.5,37.5 C 192.43,37.1975 197.263,37.5308 202,38.5C 215.931,60.7064 230.098,82.7064 244.5,104.5C 245.822,82.7979 245.822,61.1312 244.5,39.5C 244.709,38.914 245.043,38.414 245.5,38C 249.152,37.5014 252.818,37.3347 256.5,37.5C 256.667,67.5019 256.5,97.5019 256,127.5C 252,128.833 248,128.833 244,127.5C 229.396,103.234 214.396,79.2341 199,55.5C 198.667,79.5 198.333,103.5 198,127.5C 194.545,128.791 191.045,128.791 187.5,127.5C 186.809,97.3911 186.809,67.3911 187.5,37.5 Z"/></g>
<g><path style="opacity:0.924" fill="#fdfdfd" d="M 282.5,37.5 C 287.179,37.3342 291.845,37.5008 296.5,38C 310.627,60.423 325.127,82.5897 340,104.5C 340.5,82.1692 340.667,59.8358 340.5,37.5C 344.167,37.5 347.833,37.5 351.5,37.5C 351.959,67.0602 352.293,96.5602 352.5,126C 352.355,126.772 352.022,127.439 351.5,128C 347.833,128.667 344.167,128.667 340.5,128C 324.938,104.1 309.771,79.933 295,55.5C 293.842,67.1812 293.342,79.0145 293.5,91C 293.51,102.877 293.843,114.711 294.5,126.5C 294.291,127.086 293.957,127.586 293.5,128C 289.909,128.789 286.409,128.622 283,127.5C 282.5,97.5019 282.333,67.5019 282.5,37.5 Z"/></g>
<g><path style="opacity:1" fill="#ff7d0c" d="M 64.5,38.5 C 80.1667,38.5 95.8333,38.5 111.5,38.5C 113.214,39.7384 115.214,40.405 117.5,40.5C 118.492,40.3284 119.158,40.6618 119.5,41.5C 119.973,42.9063 120.973,43.573 122.5,43.5C 122.738,45.4044 123.738,46.7377 125.5,47.5C 125.427,49.0269 126.094,50.0269 127.5,50.5C 127.5,50.8333 127.5,51.1667 127.5,51.5C 127.942,55.1545 128.276,58.8212 128.5,62.5C 128.768,64.099 128.434,65.4324 127.5,66.5C 126.326,67.5137 125.66,68.847 125.5,70.5C 123.5,71.8333 121.833,73.5 120.5,75.5C 119.005,75.4148 118.005,76.0815 117.5,77.5C 118.32,79.1112 119.654,79.7778 121.5,79.5C 122.514,80.6737 123.847,81.3404 125.5,81.5C 127.167,83.8333 129.167,85.8333 131.5,87.5C 131.427,89.0269 132.094,90.0269 133.5,90.5C 134.241,96.4707 134.575,102.471 134.5,108.5C 134.737,109.791 134.404,110.791 133.5,111.5C 131.992,113.181 130.992,115.181 130.5,117.5C 128.5,118.833 126.833,120.5 125.5,122.5C 123.181,122.992 121.181,123.992 119.5,125.5C 117.162,127.04 114.495,127.706 111.5,127.5C 95.9221,127.824 80.4221,127.491 65,126.5C 64.5,97.1686 64.3334,67.8352 64.5,38.5 Z M 104.5,52.5 C 105.671,53.3446 107.005,54.0113 108.5,54.5C 110.143,58.2953 110.809,62.2953 110.5,66.5C 109.197,68.1423 107.864,69.8089 106.5,71.5C 105.508,71.3284 104.842,71.6618 104.5,72.5C 97.5,72.5 90.5,72.5 83.5,72.5C 83.5,65.8333 83.5,59.1667 83.5,52.5C 90.5,52.5 97.5,52.5 104.5,52.5 Z M 83.5,87.5 C 92.9714,86.9828 102.305,87.6494 111.5,89.5C 112.167,90.8333 113.167,91.8333 114.5,92.5C 114.927,95.0098 115.593,97.3432 116.5,99.5C 115.781,101.764 115.448,104.097 115.5,106.5C 114.094,106.973 113.427,107.973 113.5,109.5C 111.973,109.427 110.973,110.094 110.5,111.5C 101.54,112.415 92.5404,112.748 83.5,112.5C 83.5,104.167 83.5,95.8333 83.5,87.5 Z"/></g>
<g><path style="opacity:0.016" fill="#ffe9d3" d="M 111.5,38.5 C 113.898,38.2594 115.898,38.9261 117.5,40.5C 115.214,40.405 113.214,39.7384 111.5,38.5 Z"/></g>
<g><path style="opacity:0.036" fill="#fff8f3" d="M 64.5,38.5 C 64.3334,67.8352 64.5,97.1686 65,126.5C 80.4221,127.491 95.9221,127.824 111.5,127.5C 95.7645,128.83 79.9312,128.83 64,127.5C 63.1695,97.6638 63.3362,67.9972 64.5,38.5 Z"/></g>
<g><path style="opacity:1" fill="#51c6dc" d="M 387.5,33.5 C 386.859,34.4822 386.193,35.4822 385.5,36.5C 385.694,64.7365 385.694,92.9031 385.5,121C 386.381,121.708 387.047,122.542 387.5,123.5C 380.63,120.633 375.297,115.966 371.5,109.5C 371.06,90.1124 370.727,70.9457 370.5,52C 371.464,50.2745 372.131,48.4412 372.5,46.5C 375.833,43.8333 378.833,40.8333 381.5,37.5C 383.147,35.6736 385.147,34.3403 387.5,33.5 Z"/></g>
<g><path style="opacity:0.004" fill="#dfeaf7" d="M 445.5,39.5 C 447.833,39.8333 449.167,41.1667 449.5,43.5C 447.833,42.5 446.5,41.1667 445.5,39.5 Z"/></g>
<g><path style="opacity:0.02" fill="#ffead6" d="M 119.5,41.5 C 121.027,41.427 122.027,42.0937 122.5,43.5C 120.973,43.573 119.973,42.9063 119.5,41.5 Z"/></g>
<g><path style="opacity:0.596" fill="#ffd3a8" d="M 122.5,43.5 C 124.262,44.2623 125.262,45.5956 125.5,47.5C 123.738,46.7377 122.738,45.4044 122.5,43.5 Z"/></g>
<g><path style="opacity:0.537" fill="#c0ecf4" d="M 381.5,37.5 C 378.833,40.8333 375.833,43.8333 372.5,46.5C 374.5,42.5 377.5,39.5 381.5,37.5 Z"/></g>
<g><path style="opacity:1" fill="#1363b7" d="M 442.5,38.5 C 443.167,38.5 443.833,38.5 444.5,38.5C 445.167,38.5 445.5,38.8333 445.5,39.5C 446.5,41.1667 447.833,42.5 449.5,43.5C 450.5,43.8333 451.167,44.5 451.5,45.5C 451.5,45.8333 451.5,46.1667 451.5,46.5C 450.503,46.4701 449.836,46.9701 449.5,48C 450.421,68.2059 450.421,88.5393 449.5,109C 450.094,109.464 450.761,109.631 451.5,109.5C 451.5,110.167 451.5,110.833 451.5,111.5C 448.833,113.5 446.5,115.833 444.5,118.5C 443.833,118.5 443.167,118.5 442.5,118.5C 441.761,118.631 441.094,118.464 440.5,118C 441.833,92.6667 441.833,67.3333 440.5,42C 441.085,40.6976 441.751,39.531 442.5,38.5 Z"/></g>
<g><path style="opacity:1" fill="#245eb6" d="M 451.5,46.5 C 452.167,47.8333 453.167,48.8333 454.5,49.5C 454.427,51.0269 455.094,52.0269 456.5,52.5C 457.338,52.8417 457.672,53.5084 457.5,54.5C 457.992,56.8185 458.992,58.8185 460.5,60.5C 460.171,63.2282 460.837,65.5615 462.5,67.5C 463.165,70.9841 463.499,74.6508 463.5,78.5C 463.713,83.7672 463.046,88.7672 461.5,93.5C 459.398,96.9312 457.565,100.598 456,104.5C 454.951,106.618 453.451,108.284 451.5,109.5C 450.761,109.631 450.094,109.464 449.5,109C 450.421,88.5393 450.421,68.2059 449.5,48C 449.836,46.9701 450.503,46.4701 451.5,46.5 Z"/></g>
<g><path style="opacity:0.451" fill="#b0caeb" d="M 451.5,45.5 C 453.262,46.2623 454.262,47.5956 454.5,49.5C 453.167,48.8333 452.167,47.8333 451.5,46.5C 451.5,46.1667 451.5,45.8333 451.5,45.5 Z"/></g>
<g><path style="opacity:0.118" fill="#ffe9d2" d="M 125.5,47.5 C 126.906,47.9731 127.573,48.9731 127.5,50.5C 126.094,50.0269 125.427,49.0269 125.5,47.5 Z"/></g>
<g><path style="opacity:0.227" fill="#c7d9f0" d="M 454.5,49.5 C 455.906,49.9731 456.573,50.9731 456.5,52.5C 455.094,52.0269 454.427,51.0269 454.5,49.5 Z"/></g>
<g><path style="opacity:0.957" fill="#ffbd85" d="M 104.5,52.5 C 106.483,52.1568 107.817,52.8235 108.5,54.5C 107.005,54.0113 105.671,53.3446 104.5,52.5 Z"/></g>
<g><path style="opacity:0.034" fill="#fef7f0" d="M 104.5,52.5 C 97.5,52.5 90.5,52.5 83.5,52.5C 83.5,59.1667 83.5,65.8333 83.5,72.5C 90.5,72.5 97.5,72.5 104.5,72.5C 97.3524,73.4916 90.0191,73.825 82.5,73.5C 82.5,66.1667 82.5,58.8333 82.5,51.5C 90.0191,51.175 97.3524,51.5084 104.5,52.5 Z"/></g>
<g><path style="opacity:0.013" fill="#ffefde" d="M 127.5,51.5 C 129.441,55.0687 129.774,58.7353 128.5,62.5C 128.276,58.8212 127.942,55.1545 127.5,51.5 Z"/></g>
<g><path style="opacity:1" fill="#74dde6" d="M 372.5,46.5 C 372.131,48.4412 371.464,50.2745 370.5,52C 370.727,70.9457 371.06,90.1124 371.5,109.5C 358.225,91.0688 357.059,71.7354 368,51.5C 369.049,49.3825 370.549,47.7158 372.5,46.5 Z"/></g>
<g><path style="opacity:0.102" fill="#d7e4f4" d="M 457.5,54.5 C 459.539,55.911 460.539,57.911 460.5,60.5C 458.992,58.8185 457.992,56.8185 457.5,54.5 Z"/></g>
<g><path style="opacity:0.903" fill="#fcfcfc" d="M 152.5,59.5 C 155.833,59.5 159.167,59.5 162.5,59.5C 162.378,81.9211 162.711,104.254 163.5,126.5C 163.291,127.086 162.957,127.586 162.5,128C 158.909,128.789 155.409,128.622 152,127.5C 151.178,104.761 151.345,82.094 152.5,59.5 Z"/></g>
<g><path style="opacity:0.047" fill="#c8d7f0" d="M 460.5,60.5 C 461.924,62.5145 462.59,64.8478 462.5,67.5C 460.837,65.5615 460.171,63.2282 460.5,60.5 Z"/></g>
<g><path style="opacity:0.333" fill="#ffe2c7" d="M 110.5,66.5 C 110.631,69.3667 109.297,71.0334 106.5,71.5C 107.864,69.8089 109.197,68.1423 110.5,66.5 Z"/></g>
<g><path style="opacity:0.09" fill="#ffe8d0" d="M 127.5,66.5 C 127.771,68.3797 127.104,69.713 125.5,70.5C 125.66,68.847 126.326,67.5137 127.5,66.5 Z"/></g>
<g><path style="opacity:0.035" fill="#ffedd9" d="M 125.5,70.5 C 124.833,73.1667 123.167,74.8333 120.5,75.5C 121.833,73.5 123.5,71.8333 125.5,70.5 Z"/></g>
<g><path style="opacity:0.029" fill="#fce4ce" d="M 120.5,75.5 C 119.174,77.1951 119.507,78.5284 121.5,79.5C 119.654,79.7778 118.32,79.1112 117.5,77.5C 118.005,76.0815 119.005,75.4148 120.5,75.5 Z"/></g>
<g><path style="opacity:0.106" fill="#ffe6cf" d="M 121.5,79.5 C 123.38,79.2291 124.713,79.8958 125.5,81.5C 123.847,81.3404 122.514,80.6737 121.5,79.5 Z"/></g>
<g><path style="opacity:0.02" fill="#ffe1c4" d="M 125.5,81.5 C 128.5,82.5 130.5,84.5 131.5,87.5C 129.167,85.8333 127.167,83.8333 125.5,81.5 Z"/></g>
<g><path style="opacity:0.424" fill="#ffe1c6" d="M 111.5,89.5 C 113.5,89.5 114.5,90.5 114.5,92.5C 113.167,91.8333 112.167,90.8333 111.5,89.5 Z"/></g>
<g><path style="opacity:0.173" fill="#ffe4c8" d="M 131.5,87.5 C 132.906,87.9731 133.573,88.9731 133.5,90.5C 132.094,90.0269 131.427,89.0269 131.5,87.5 Z"/></g>
<g><path style="opacity:0.01" fill="#fff1e5" d="M 114.5,92.5 C 115.117,92.6107 115.617,92.944 116,93.5C 116.495,95.4727 116.662,97.4727 116.5,99.5C 115.593,97.3432 114.927,95.0098 114.5,92.5 Z"/></g>
<g><path style="opacity:0.212" fill="#ffe5cb" d="M 133.5,90.5 C 134.97,93.886 135.637,97.5527 135.5,101.5C 135.497,104.025 135.163,106.359 134.5,108.5C 134.575,102.471 134.241,96.4707 133.5,90.5 Z"/></g>
<g><path style="opacity:0.082" fill="#d9e5f5" d="M 461.5,93.5 C 460.225,100.724 456.891,106.724 451.5,111.5C 451.5,110.833 451.5,110.167 451.5,109.5C 453.451,108.284 454.951,106.618 456,104.5C 457.565,100.598 459.398,96.9312 461.5,93.5 Z"/></g>
<g><path style="opacity:0.235" fill="#ffe3c8" d="M 115.5,106.5 C 115.573,108.027 114.906,109.027 113.5,109.5C 113.427,107.973 114.094,106.973 115.5,106.5 Z"/></g>
<g><path style="opacity:0.365" fill="#ffe1c5" d="M 113.5,109.5 C 113.027,110.906 112.027,111.573 110.5,111.5C 110.973,110.094 111.973,109.427 113.5,109.5 Z"/></g>
<g><path style="opacity:0.057" fill="#fff1e5" d="M 83.5,87.5 C 83.5,95.8333 83.5,104.167 83.5,112.5C 92.5404,112.748 101.54,112.415 110.5,111.5C 110.082,112.222 109.416,112.722 108.5,113C 99.8397,113.5 91.1731,113.666 82.5,113.5C 82.1736,104.651 82.507,95.9839 83.5,87.5 Z"/></g>
<g><path style="opacity:0.157" fill="#ffe3c6" d="M 133.5,111.5 C 133.539,114.089 132.539,116.089 130.5,117.5C 130.992,115.181 131.992,113.181 133.5,111.5 Z"/></g>
<g><path style="opacity:0.008" fill="#eaf2fa" d="M 451.5,111.5 C 450.167,114.833 447.833,117.167 444.5,118.5C 446.5,115.833 448.833,113.5 451.5,111.5 Z"/></g>
<g><path style="opacity:0.012" fill="#fff4e8" d="M 130.5,117.5 C 129.833,120.167 128.167,121.833 125.5,122.5C 126.833,120.5 128.5,118.833 130.5,117.5 Z"/></g>
<g><path style="opacity:0.047" fill="#ddeaf6" d="M 442.5,118.5 C 443.167,118.5 443.833,118.5 444.5,118.5C 443.738,120.262 442.404,121.262 440.5,121.5C 441.167,120.5 441.833,119.5 442.5,118.5 Z"/></g>
<g><path style="opacity:0.129" fill="#d6e6f4" d="M 440.5,121.5 C 439.341,123.25 437.674,124.25 435.5,124.5C 435.5,124.167 435.5,123.833 435.5,123.5C 437.05,122.559 438.716,121.893 440.5,121.5 Z"/></g>
<g><path style="opacity:0.125" fill="#ffe7ce" d="M 125.5,122.5 C 124.089,124.539 122.089,125.539 119.5,125.5C 121.181,123.992 123.181,122.992 125.5,122.5 Z"/></g>
<g><path style="opacity:0.035" fill="#d2e3f2" d="M 435.5,124.5 C 433.574,126.293 431.241,127.293 428.5,127.5C 428.5,127.167 428.5,126.833 428.5,126.5C 430.701,125.434 433.035,124.767 435.5,124.5 Z"/></g>
</svg>
